<?xml version="1.0" encoding="UTF-8"?>
<svg width="30px" height="30px" viewBox="0 0 30 30" version="1.1" xmlns="http://www.w3.org/2000/svg" xmlns:xlink="http://www.w3.org/1999/xlink">
    <!-- Generator: Sketch 49.3 (51167) - http://www.bohemiancoding.com/sketch -->
    <title>收起</title>
    <desc>Created with Sketch.</desc>
    <defs></defs>
    <g id="Page-1" stroke="none" stroke-width="1" fill="none" fill-rule="evenodd">
        <g id="developers" transform="translate(-40.000000, -787.000000)">
            <g id="收起" transform="translate(40.000000, 787.000000)">
                <rect id="Rectangle-23" stroke="#77B8EE" x="0.5" y="0.5" width="29" height="29"></rect>
                <g transform="translate(15.000000, 15.500000) rotate(-90.000000) translate(-15.000000, -15.500000) translate(7.000000, 8.000000)" fill="#77B8EE" fill-rule="nonzero" id="Shape">
                    <path d="M8.41337396,0.233699454 L15.4314113,7.71500351 C15.7271495,8.03589419 15.7271495,8.53879975 15.4314113,8.85969042 C15.148758,9.16530301 14.6788469,9.1772783 14.3818367,8.88643821 C14.3729585,8.87774443 14.3642909,8.86882585 14.3558418,8.85969041 L7.8263881,1.89723317 L1.29693438,8.86084441 C1.01632111,9.16582153 0.548565049,9.17898443 0.252171004,8.89024301 C0.242388713,8.88071327 0.232861475,8.87091016 0.223600022,8.86084451 C-0.0738403432,8.54065496 -0.0738403432,8.03634706 0.223600067,7.71615756 L7.23716552,0.233699496 C7.38999554,0.0698023956 7.60635449,-0.0146849566 7.82638179,0.00361104406 C8.0457433,-0.0146449339 8.26140521,0.0698912076 8.41336073,0.233699501 L8.41337396,0.233699454 Z M7.82639504,5.8662529 C8.04520141,5.84727853 8.26071141,5.9304883 8.41337392,6.09288959 L15.4314112,13.5753477 C15.7268754,13.897239 15.7268754,14.400444 15.4314112,14.7223353 C15.1469692,15.0279478 14.6756086,15.0384317 14.3785985,14.7457511 C14.3708499,14.7381154 14.3632625,14.7303084 14.3558419,14.7223354 L7.82638819,7.75643077 L1.29693448,14.7211814 C1.01363378,15.0261586 0.543698572,15.0370792 0.247304527,14.7455726 C0.239225592,14.7376268 0.231322068,14.7294944 0.223599932,14.7211814 C-0.0729886063,14.3997517 -0.0729886063,13.8956235 0.223599934,13.5741938 L7.23828691,6.09173573 C7.39176572,5.92999031 7.60746453,5.847288 7.82638452,5.86625011 L7.82639504,5.8662529 Z"></path>
                </g>
            </g>
        </g>
    </g>
</svg>