<?xml version="1.0" encoding="UTF-8"?>
<svg width="20px" height="20px" viewBox="0 0 20 20" version="1.1" xmlns="http://www.w3.org/2000/svg" xmlns:xlink="http://www.w3.org/1999/xlink">
    <!-- Generator: Sketch 49.3 (51167) - http://www.bohemiancoding.com/sketch -->
    <title>编辑</title>
    <desc>Created with Sketch.</desc>
    <defs></defs>
    <g id="Page-1" stroke="none" stroke-width="1" fill="none" fill-rule="evenodd">
        <g id="developers" transform="translate(-1012.000000, -105.000000)" fill="#0B93E9" fill-rule="nonzero">
            <g id="编辑" transform="translate(1012.000000, 105.000000)">
                <path d="M6.09614598,10.8305248 C6.08250526,10.8464362 6.07216479,10.8649013 6.06572616,10.8848459 L5.08142935,14.6123607 C5.02447657,14.83086 5.08376491,15.0632945 5.23841727,15.2278191 C5.35242191,15.3450352 5.50948166,15.4104111 5.67298654,15.4087082 C5.72805497,15.4091002 5.7829076,15.4017865 5.83594962,15.3869798 L9.41733226,14.3766076 C9.42178215,14.3777224 9.42614048,14.3791752 9.4303693,14.3809533 C9.47277206,14.3818954 9.51346236,14.3642298 9.54172743,14.3326076 L19.1185372,4.43368465 C19.405204,4.12795304 19.561979,3.72286802 19.5558221,3.30380763 L19.5558221,3.30381192 C19.5512558,2.79702261 19.3509813,2.31161076 18.9968611,1.94904385 L18.0929579,1.01689398 C17.7510943,0.655725005 17.2783287,0.447238478 16.7811014,0.438371627 C16.3689256,0.43462385 15.973118,0.599461849 15.6854466,0.894667818 L6.10863689,10.797945 C6.10297291,10.8082343 6.09859445,10.8191805 6.09559985,10.8305377 L6.09614598,10.8305248 Z M18.1787816,3.47220369 L17.2270761,4.45432914 L15.6859877,2.8350184 L16.6246555,1.86593064 C16.8055938,1.71338227 17.0753332,1.73366698 17.2314207,1.9115603 L18.1369528,2.84805479 C18.2300133,2.94336263 18.283074,3.07066944 18.2852492,3.20385745 C18.2821323,3.30338645 18.2436092,3.39853847 18.1766071,3.47220419 L18.1787816,3.47220369 Z M7.79856984,10.9880579 L14.7103782,3.84320586 L16.2536399,5.46468987 L9.35487495,12.5937867 L7.79857748,10.988056 L7.79856984,10.9880579 Z M6.53941594,13.8839049 L7.03916982,11.9897294 L8.37057814,13.3667687 L6.53941594,13.8839049 Z M18.7855621,7.39362996 C18.414474,7.40165019 18.1193165,7.70747789 18.1244747,8.07861756 L18.1244747,17.307762 L18.1244747,17.307763 C18.1323371,17.7844092 17.7523133,18.1771804 17.2756671,18.1850427 C17.2755901,18.185044 17.2755131,18.1850452 17.275436,18.1850465 L2.17310597,18.1850465 C1.69645785,18.1773111 1.31632911,17.7846403 1.3240635,17.3079922 C1.32406475,17.3079151 1.32406601,17.3078381 1.32406728,17.3077611 L1.32406728,2.24345364 C1.31710599,1.7670749 1.69675382,1.37479649 2.17310594,1.36616835 L11.8992943,1.36616835 C12.2765527,1.35552878 12.5737555,1.04107596 12.5631164,0.663815629 C12.5528987,0.301514166 12.2615958,0.010210528 11.8992943,-6.49780702e-06 L2.07152767,-6.49780702e-06 C0.909234998,0.0211158184 -0.016985177,0.978429363 0.000259634772,2.1407946 L0.000259634772,17.4147898 L0.000259552572,17.4147953 C-0.0169894606,18.577151 0.909234916,19.5344558 2.07152759,19.5555774 L17.3753909,19.5555774 C18.5376836,19.534455 19.4639038,18.5771415 19.446659,17.4147762 L19.446659,8.07156399 L19.446659,8.07156425 C19.4500041,7.7016659 19.1548741,7.39805409 18.7850292,7.39092127 L18.7855621,7.39362996 Z" id="Shape"></path>
            </g>
        </g>
    </g>
</svg>