<?xml version="1.0" encoding="UTF-8"?>
<svg width="10px" height="12px" viewBox="0 0 10 12" version="1.1" xmlns="http://www.w3.org/2000/svg" xmlns:xlink="http://www.w3.org/1999/xlink">
    <!-- Generator: Sketch 49.3 (51167) - http://www.bohemiancoding.com/sketch -->
    <title>github</title>
    <desc>Created with Sketch.</desc>
    <defs></defs>
    <g id="Page-1" stroke="none" stroke-width="1" fill="none" fill-rule="evenodd">
        <g id="developers" transform="translate(-1051.000000, -109.000000)" fill="#AAB7C1" fill-rule="nonzero">
            <g id="github" transform="translate(1051.000000, 109.000000)">
                <path d="M3.47313433,10.8754877 C3.52613882,10.8074037 3.56888844,10.7317961 3.6,10.6511111 L3.6,9.3364752 C1.62537313,9.75360482 1.2119403,8.50071008 1.2119403,8.50071008 C0.894029851,7.66494496 0.41641791,7.44659192 0.41641791,7.44659192 C-0.220895522,6.99482699 0.480597015,6.99482699 0.480597015,6.99482699 C1.18059701,7.05957996 1.56268657,7.73421559 1.56268657,7.73421559 C2.2,8.82598083 3.21791045,8.50522773 3.63283582,8.34409824 C3.67538281,7.98259141 3.8324178,7.6445879 4.08059701,7.38033306 C2.48656716,7.18005061 0.831343284,6.57016795 0.831343284,3.8400019 C0.828948038,3.12806586 1.08970961,2.44080196 1.56268657,1.91247153 C1.35050704,1.29430996 1.37337807,0.618679634 1.62686567,0.0165647141 C1.62686567,0.0165647141 2.23880597,-0.176188322 3.56865672,0.752941549 C4.15051397,0.597901165 4.75047378,0.522932111 5.35223881,0.53007085 C5.95301794,0.538877531 6.55106423,0.613607477 7.1358209,0.752941549 C8.50746269,-0.176188322 9.07761194,0.0165647141 9.07761194,0.0165647141 C9.45970149,1.01195344 9.23731343,1.7197185 9.14179104,1.91247153 C9.6197573,2.43780887 9.88175406,3.12692189 9.87462687,3.8400019 C9.87462687,6.57016795 8.21940299,7.18155649 6.62686567,7.37430953 C6.88208955,7.59868611 7.10447761,8.01732161 7.10447761,8.69195724 L7.10447761,10.6496053 C7.10447761,10.7143582 7.1358209,10.7776053 7.23134328,10.8739818 C7.32589836,11.0193588 7.29838617,11.2130206 7.16716418,11.3257468 C7.10918704,11.3616982 7.04385063,11.3838434 6.9761194,11.3904997 L3.73134328,11.3904997 C3.64538217,11.3963469 3.56110924,11.3644357 3.50018757,11.3029693 C3.43926591,11.2415029 3.40763755,11.1564764 3.41343284,11.0697466 C3.4075886,10.9996299 3.42899777,10.929968 3.47313433,10.8754877 Z" id="Shape"></path>
            </g>
        </g>
    </g>
</svg>