<?xml version="1.0" encoding="UTF-8"?>
<svg width="16px" height="16px" viewBox="0 0 16 16" version="1.1" xmlns="http://www.w3.org/2000/svg" xmlns:xlink="http://www.w3.org/1999/xlink">
    <!-- Generator: Sketch 49.3 (51167) - http://www.bohemiancoding.com/sketch -->
    <title>搜索</title>
    <desc>Created with Sketch.</desc>
    <defs></defs>
    <g id="Page-1" stroke="none" stroke-width="1" fill="none" fill-rule="evenodd">
        <g id="developers" transform="translate(-42.000000, -67.000000)" fill="#77B8EE" fill-rule="nonzero">
            <g id="搜索" transform="translate(42.000000, 67.000000)">
                <path d="M15.1975765,15.2279776 C14.8084407,15.6171133 14.224737,15.6171133 13.8356013,15.2279776 L10.819799,12.2121752 C8.19313242,14.1578542 4.59362646,14.0605702 2.16152783,11.8230395 C-0.562422628,9.29365689 -0.756990525,4.81859541 1.869676,2.09464495 C4.49634253,-0.62930551 8.87412006,-0.726589458 11.5980705,1.997361 C14.0301692,4.42945963 14.224737,8.22353349 12.1817742,10.8502 L15.1975765,13.8660023 C15.5867123,14.2551381 15.5867123,14.8388418 15.1975765,15.2279776 Z M10.6252311,3.94303991 C8.67955215,1.21908945 4.69091039,1.21908945 2.74523149,3.94303991 C1.48054021,5.59686698 1.48054021,8.02896561 2.74523149,9.68279267 C4.69091039,12.4067431 8.67955215,12.4067431 10.6252311,9.68279267 C11.8899224,7.93168166 11.8899224,5.59686696 10.6252311,3.94303991 Z" id="Shape"></path>
            </g>
        </g>
    </g>
</svg>